<?xml version="1.0" encoding="utf-8"?>
<!-- Generator: Adobe Illustrator 23.0.1, SVG Export Plug-In . SVG Version: 6.00 Build 0)  -->
<svg version="1.1" xmlns="http://www.w3.org/2000/svg" xmlns:xlink="http://www.w3.org/1999/xlink" x="0px" y="0px"
	 viewBox="0 0 800 600" style="enable-background:new 0 0 800 600;" xml:space="preserve">
<style type="text/css">
	.st0{fill:#141519;}
	.st1{fill:#01BBD4;}
	.st2{fill:#9C28B0;}
	.st3{fill:#FEEA3C;}
</style>
<g id="bl2">
	<path class="st0" d="M110.88,344.46c-0.26-12.1-0.37-23.99-0.82-35.86c-0.47-12.3,0.76-24.48,2.72-36.55
		c2.37-14.62,4.49-29.37,8.39-43.61c3.68-13.45,9.05-26.51,14.55-39.36c4.27-10,9.88-19.42,14.89-29.1
		c0.99-1.92,2.09-3.27,4.69-3.27c47.76,0.08,95.52,0.06,143.29,0.06c0.23,0,0.45,0.09,0.01,0
		C236.41,218.94,173.97,281.37,110.88,344.46z"/>
</g>
<g id="b2">
	<path class="st1" d="M171.99,126.59c3.84-4.5,6.81-8.52,10.32-12c9.52-9.46,18.7-19.4,29.08-27.82
		c11.75-9.53,24.27-18.26,37.19-26.16c11.78-7.2,24.2-13.61,36.95-18.92c13.95-5.8,28.59-9.99,42.99-14.69
		c1.16-0.38,3.23,0.25,4.14,1.16c31.4,31.25,62.72,62.59,94,93.95c1.15,1.15,1.89,2.7,3.11,4.49
		C343.55,126.59,258.3,126.59,171.99,126.59z"/>
</g>
<g id="p2">
	<path class="st2" d="M541.25,198.74c-59.28-59.49-117.88-118.3-176.42-177.05c1.5-0.12,3.83-0.42,6.15-0.49
		c13.03-0.35,26.13-1.62,39.07-0.71c15.18,1.08,30.35,3.48,45.32,6.36c26.7,5.14,51.64,15.35,75.62,28.01
		c3.2,1.69,6.57,3.07,9.72,4.84c0.67,0.38,1.01,1.83,1.01,2.79c0,2.19-0.45,4.39-0.45,6.58c-0.03,41.58-0.02,83.16-0.02,124.73
		C541.25,195.16,541.25,196.51,541.25,198.74z"/>
</g>
<g id="y2">
	<path class="st3" d="M573.21,78.23c2.54,2.23,4.66,3.94,6.61,5.82c5.34,5.13,10.85,10.1,15.84,15.55
		c6.44,7.03,12.61,14.33,18.57,21.77c5.41,6.75,10.76,13.62,15.47,20.87c5.44,8.39,10.52,17.08,15.07,25.98
		c5.38,10.52,10.58,21.21,14.85,32.21c3.97,10.22,6.64,20.95,9.77,31.49c0.24,0.8-0.13,2.17-0.73,2.77
		c-31.67,31.69-63.39,63.32-95.46,95.3C573.21,246.15,573.21,162.65,573.21,78.23z"/>
</g>
<g id="bl1">
	<path class="st0" d="M495.11,456.18c63.14-63.13,125.47-125.45,188.34-188.31c0.47,4.44,1.06,8.23,1.23,12.03
		c0.47,10.79,1.33,21.6,0.99,32.37c-0.34,10.56-1.49,21.15-3.13,31.59c-1.97,12.52-4.17,25.09-7.47,37.31
		c-5.99,22.19-14.57,43.43-26.1,63.4c-0.91,1.58-2.02,3.1-2.61,4.8c-2.07,5.96-6.25,6.99-12.19,6.96
		c-44.68-0.27-89.37-0.15-134.05-0.15C498.79,456.18,497.48,456.18,495.11,456.18z"/>
</g>
<g id="b1">
	<path class="st1" d="M365.38,481.06c83.6,0,166.21,0,249.9,0c-1.88,2.5-3.21,4.68-4.92,6.47c-8.49,8.86-16.7,18.05-25.73,26.33
		c-14.75,13.52-30.7,25.61-48.39,35.09c-11.78,6.32-23.65,12.6-35.97,17.73c-11.14,4.64-22.97,7.61-34.43,11.51
		c-2.34,0.8-3.72,0.03-5.2-1.45c-8.9-8.87-17.84-17.72-26.73-26.6c-15.95-15.94-31.87-31.92-47.81-47.86
		c-5.92-5.92-11.89-11.81-17.81-17.74C367.44,483.7,366.74,482.71,365.38,481.06z"/>
</g>
<g id="p1">
	<path class="st2" d="M248.4,546.89c0-47.66,0-94.7,0-142.45c60.56,60.73,120.47,120.8,180.7,181.19
		c-31.53,3.91-62.68,2.27-93.67-4.45C304.34,574.44,275.27,562.75,248.4,546.89z"/>
</g>
<g id="y1">
	<path class="st3" d="M216.58,276.62c0,82.8,0,164.89,0,248.24c-8.54-8.15-16.57-15.39-24.11-23.11
		c-7.59-7.79-15.17-15.67-21.85-24.22c-7.43-9.49-14.35-19.46-20.56-29.78c-6.93-11.51-13.25-23.43-19.01-35.57
		c-3.85-8.12-6.24-16.93-9.3-25.42c-0.62-1.73-1.28-3.44-1.95-5.14c-2.34-5.94-2.26-6.15,2.22-10.6
		c9.01-8.96,17.98-17.97,26.97-26.95c21.64-21.64,43.28-43.28,64.92-64.91C214.59,278.46,215.32,277.81,216.58,276.62z"/>
</g>
</svg>
